<?xml version="1.0" encoding="utf-8"?>
<!-- Generator: Adobe Illustrator 24.3.0, SVG Export Plug-In . SVG Version: 6.00 Build 0)  -->
<svg version="1.1" id="Layer_1" xmlns="http://www.w3.org/2000/svg" xmlns:xlink="http://www.w3.org/1999/xlink" x="0px" y="0px"
	 width="28px" height="28px" viewBox="0 0 28 28" style="enable-background:new 0 0 28 28;" xml:space="preserve">
<style type="text/css">
	.st0{fill:none;stroke:#251F2E;stroke-width:2;stroke-linecap:round;stroke-linejoin:round;}
	
		.st1{fill-rule:evenodd;clip-rule:evenodd;fill:#251F2E;stroke:#251F2E;stroke-width:2;stroke-linecap:round;stroke-linejoin:round;}
</style>
<g>
	<path class="st0" d="M5.3,6.6C10.7,4.8,17,4.4,19.8,4.5c2.8,0.1,4,1.1,4.9,2.8c1.4,2.8,1.1,9.7-1.4,11.9c-2.5,2.2-12.7,2.4-16.2,0
		C3.5,16.6,5.4,9.6,5.3,4.8c0.1-2.7-2.8-3.1-2.8-3.1"/>
	<path class="st0" d="M15.7,11.4h3.9"/>
	<path class="st1" d="M7.7,24.8c0.4,0,0.8,0.3,0.8,0.8c0,0.4-0.3,0.8-0.8,0.8c-0.4,0-0.8-0.3-0.8-0.8C6.9,25.1,7.3,24.8,7.7,24.8z"
		/>
	<path class="st1" d="M22.1,24.8c0.4,0,0.8,0.3,0.8,0.8c0,0.4-0.3,0.8-0.8,0.8c-0.4,0-0.8-0.3-0.8-0.8
		C21.3,25.1,21.6,24.8,22.1,24.8z"/>
</g>
</svg>
