<?xml version="1.0" encoding="utf-8"?>
<!-- Generator: Adobe Illustrator 24.3.0, SVG Export Plug-In . SVG Version: 6.00 Build 0)  -->
<svg version="1.1" id="Layer_1" xmlns="http://www.w3.org/2000/svg" xmlns:xlink="http://www.w3.org/1999/xlink" x="0px" y="0px"
	 width="28px" height="28px" viewBox="0 0 28 28" style="enable-background:new 0 0 28 28;" xml:space="preserve">
<style type="text/css">
	
		.st0{fill-rule:evenodd;clip-rule:evenodd;fill:#251F2E;stroke:#FFFFFF;stroke-width:2;stroke-linecap:round;stroke-linejoin:round;}
	.st1{fill:#FFFFFF;}
	.st2{fill:none;stroke:#FFFFFF;stroke-width:2;stroke-linecap:round;stroke-linejoin:round;}
</style>
<path class="st0" d="M7.7,24.8c0.4,0,0.8,0.3,0.8,0.8c0,0.4-0.3,0.8-0.8,0.8c-0.4,0-0.8-0.3-0.8-0.8C6.9,25.1,7.3,24.8,7.7,24.8z"/>
<path class="st0" d="M22.1,24.8c0.4,0,0.8,0.3,0.8,0.8c0,0.4-0.3,0.8-0.8,0.8c-0.4,0-0.8-0.3-0.8-0.8C21.3,25.1,21.6,24.8,22.1,24.8
	z"/>
<g>
	<path class="st1" d="M4.8,6.3C10.5,4.4,17.2,4,20.1,4.1c3,0.1,4.5,2,4.5,2c0.4,0.5,0.8,1.5,0.9,2.1c0,0,1,9.1-1.6,11.4
		s-16,0.2-16,0.2c-0.7-0.1-1.3-0.7-1.4-1.4L4.6,5.6C4.7,4.9,4.4,4,4,3.5L1.8,1.1 M21,11.4c0-0.6-0.5-1.1-1.2-1.1h-4
		c-0.7,0-1.2,0.5-1.2,1.1s0.5,1.1,1.2,1.1h4C20.4,12.5,21,12,21,11.4z"/>
</g>
<path class="st2" d="M5.3,6.6C10.7,4.8,17,4.4,19.8,4.5s4,1.1,4.9,2.8c1.4,2.8,1.1,9.7-1.4,11.9s-12.7,2.4-16.2,0
	C3.5,16.6,5.4,9.6,5.3,4.8c0.1-2.7-2.8-3.1-2.8-3.1"/>
</svg>
