<?xml version="1.0" encoding="utf-8"?>
<!-- Generator: Adobe Illustrator 16.0.0, SVG Export Plug-In . SVG Version: 6.00 Build 0)  -->
<!DOCTYPE svg PUBLIC "-//W3C//DTD SVG 1.1//EN" "http://www.w3.org/Graphics/SVG/1.1/DTD/svg11.dtd">
<svg version="1.1" id="Layer_1" xmlns="http://www.w3.org/2000/svg" xmlns:xlink="http://www.w3.org/1999/xlink" x="0px" y="0px"
	 width="32px" height="32px" viewBox="0 0 32 32" enable-background="new 0 0 32 32" xml:space="preserve">
<rect fill="#F15C25" width="32" height="32"/>
<g>
	<path fill="#FFFFFF" d="M8.403,17.198c-0.492-0.639-1.268-0.812-1.895-0.812c-1.521,0-2.774,0.907-3.311,2.736
		c-0.353,1.198-0.162,2.68,1.719,2.68c0.494,0,1.294-0.094,1.942-0.479l0.353-1.201h-2.36l0.607-2.066h4.562L8.801,22.2
		c-0.936,1.188-2.751,1.827-4.552,1.827c-3.695,0-4.37-2.466-3.652-4.905c0.718-2.442,3.056-4.95,6.563-4.95
		c1.294,0,2.363,0.267,3.225,1.507L8.403,17.198z"/>
	<path fill="#FFFFFF" d="M29.677,17.198c-0.492-0.639-1.268-0.812-1.894-0.812c-1.524,0-2.776,0.907-3.313,2.736
		c-0.354,1.198-0.163,2.68,1.719,2.68c0.495,0,1.293-0.094,1.941-0.479l0.354-1.201h-2.363l0.609-2.066h4.562l-1.22,4.146
		c-0.936,1.188-2.75,1.827-4.552,1.827c-3.695,0-4.369-2.466-3.65-4.905c0.715-2.442,3.054-4.95,6.561-4.95
		c1.293,0,2.363,0.267,3.226,1.507L29.677,17.198z"/>
	<path fill="#FFFFFF" d="M12.24,19.356c-0.116,0.148-0.226,0.309-0.329,0.48c-0.257,0.427-0.472,0.923-0.631,1.498l-0.724,2.6h7.243
		C14.934,22.894,13.23,21.003,12.24,19.356 M17.432,21.255c0.814,1.113,1.798,1.792,2.686,2.204l0.613-2.204H17.432z M19.031,12.622
		c-0.144-0.009-0.291-0.012-0.44-0.012c-0.156,0-0.313,0.003-0.467,0.012c-0.597,0.033-1.188,0.13-1.747,0.298
		c-0.415,0.859-0.701,1.972-0.627,3.375h0.203c0.316-0.846,1.016-1.181,1.942-1.181c0.674,0,1.274,0.224,1.259,0.813
		c-0.004,0.078-0.016,0.163-0.042,0.255c-0.252,0.909-1.265,1.164-1.888,1.164c-0.334,0-0.677,0.015-1.022,0.05
		c-0.105,0.01-0.214,0.022-0.319,0.037c0.048,0.282,0.112,0.576,0.191,0.878c0.147,0.561,0.326,1.067,0.534,1.524
		c2.647-0.019,4.861-0.95,5.628-3.702C22.857,13.9,21.303,12.751,19.031,12.622"/>
	<path fill="#FFFFFF" d="M17.133,14.071c0.448-0.332,1.129-0.933,1.292-1.462c-0.518,0-0.998,0.013-0.998,0.013
		s-0.042-1.033,1.094-2.117c-0.029,0.015-1.332,0.728-2.143,2.415c-0.231,0.48-0.423,1.039-0.534,1.684
		C16.301,14.483,16.758,14.349,17.133,14.071"/>
	<path fill="#FFFFFF" d="M17.812,23.941c0,0-0.017-0.003-0.041-0.007c-0.422-0.046-4.065-0.555-5.859-4.098
		c-0.486-0.962-0.836-2.143-0.95-3.601c0,0,0.265,1.432,1.279,3.121c0.99,1.646,2.693,3.537,5.559,4.578
		C17.802,23.938,17.806,23.938,17.812,23.941"/>
	<path fill="#FFFFFF" d="M17.377,9.826c-0.134,0.127-0.242,0.275-0.361,0.416c-0.022,0.027-0.01,0.051-0.003,0.077
		c0.023,0.077,0.007,0.14-0.048,0.185c-0.028,0.022-0.04,0.018-0.053-0.014c-0.01-0.024-0.004-0.065-0.027-0.068
		c-0.025-0.004-0.038,0.034-0.054,0.055c-0.256,0.318-0.534,0.618-0.821,0.907c-0.23,0.23-0.46,0.46-0.69,0.689
		c-0.059,0.057-0.118,0.115-0.177,0.17c-0.061,0.057-0.134,0.075-0.212,0.047c-0.288-0.102-0.554-0.245-0.776-0.46
		c-0.165-0.161-0.297-0.347-0.405-0.55c-0.043-0.081-0.029-0.16,0.023-0.234c0.145-0.202,0.29-0.405,0.436-0.606
		c0.177-0.244,0.354-0.489,0.542-0.727c0.087-0.11,0.17-0.221,0.266-0.325c0.093-0.102,0.174-0.212,0.271-0.309
		c0.006-0.006,0.016-0.013,0.013-0.023c-0.006-0.01-0.016-0.008-0.025-0.01c-0.019-0.002-0.039-0.005-0.058-0.006
		c-0.033-0.002-0.035-0.02-0.022-0.044c0.029-0.058,0.096-0.092,0.169-0.079c0.048,0.009,0.074-0.007,0.105-0.039
		c0.233-0.244,0.435-0.512,0.652-0.77c0.08-0.097,0.179-0.127,0.294-0.132c0.214-0.01,0.413,0.047,0.597,0.151
		c0.339,0.191,0.601,0.454,0.731,0.833c0.038,0.114,0.055,0.232,0.032,0.354c-0.007,0.04-0.022,0.075-0.048,0.106
		C17.611,9.553,17.495,9.69,17.377,9.826 M16.554,9.227c-0.122-0.106-0.237-0.19-0.365-0.257c-0.105-0.057-0.217-0.1-0.34-0.104
		c-0.031-0.001-0.053,0.002-0.072,0.034c-0.089,0.154-0.182,0.307-0.271,0.46c-0.035,0.061-0.016,0.114,0.046,0.143
		c0.353,0.165,0.64,0.41,0.856,0.734c0.037,0.054,0.092,0.064,0.144,0.022c0.142-0.116,0.284-0.234,0.427-0.351
		c0.014-0.012,0.019-0.023,0.015-0.042c-0.015-0.129-0.079-0.24-0.152-0.34C16.752,9.41,16.652,9.305,16.554,9.227 M14.549,11.539
		c0.101,0.087,0.208,0.165,0.33,0.225c0.103,0.051,0.209,0.086,0.326,0.093c0.022,0.001,0.039-0.007,0.051-0.025
		c0.081-0.123,0.163-0.247,0.246-0.37c0.016-0.024,0.01-0.032-0.013-0.04c-0.065-0.024-0.128-0.05-0.19-0.082
		c-0.129-0.067-0.246-0.151-0.356-0.244c-0.17-0.146-0.326-0.305-0.428-0.508c-0.015-0.031-0.027-0.01-0.038,0
		c-0.108,0.099-0.215,0.198-0.324,0.298c-0.019,0.017-0.022,0.034-0.018,0.058c0.012,0.061,0.032,0.118,0.061,0.172
		C14.282,11.284,14.407,11.418,14.549,11.539 M16.911,10.066c-0.054,0.042-0.1,0.08-0.147,0.114
		c-0.238,0.168-0.424,0.388-0.617,0.602c-0.024,0.026-0.011,0.03,0.013,0.033c0.036,0.004,0.069,0.008,0.103,0.014
		c0.021,0.005,0.035-0.003,0.047-0.02c0.192-0.222,0.383-0.443,0.575-0.664C16.904,10.124,16.914,10.101,16.911,10.066 M15.64,8.978
		c-0.037,0.003-0.056,0.016-0.074,0.036c-0.186,0.219-0.374,0.439-0.561,0.657c-0.019,0.023-0.03,0.046-0.018,0.078
		c0.013,0.026,0.019,0.057,0.025,0.085c0.008,0.024,0.015,0.035,0.035,0.009c0.163-0.199,0.332-0.392,0.455-0.621
		C15.547,9.143,15.591,9.063,15.64,8.978 M14.747,10.189c0.002,0.001,0.002,0.002,0.004,0.004c0.04-0.045,0.074-0.097,0.119-0.135
		c0.074-0.065,0.086-0.137,0.042-0.222c-0.005-0.009-0.001-0.024-0.014-0.027c-0.011-0.002-0.018,0.012-0.024,0.02
		c-0.115,0.136-0.229,0.271-0.344,0.407c-0.062,0.075-0.061,0.075-0.012,0.161c0.018,0.03,0.029,0.027,0.049,0.003
		C14.626,10.33,14.686,10.26,14.747,10.189 M15.991,11.178v0.001c0.065-0.076,0.131-0.151,0.195-0.227
		c0.006-0.008,0.019-0.014,0.016-0.026c-0.006-0.011-0.021-0.008-0.03-0.009c-0.029-0.004-0.058-0.006-0.084-0.012
		c-0.03-0.007-0.05,0.002-0.071,0.025c-0.102,0.124-0.207,0.244-0.306,0.37c-0.064,0.082-0.065,0.079,0.032,0.118
		c0.029,0.01,0.042,0.004,0.058-0.017C15.863,11.326,15.927,11.252,15.991,11.178 M15.617,11.612
		C15.617,11.613,15.617,11.613,15.617,11.612c0.034-0.039,0.067-0.077,0.101-0.116c0.007-0.007,0.021-0.019,0.005-0.027
		c-0.032-0.017-0.067-0.03-0.102-0.043c-0.01-0.004-0.02,0.006-0.026,0.016c-0.063,0.085-0.112,0.179-0.163,0.271
		c-0.006,0.013-0.01,0.026,0.005,0.03c0.029,0.005,0.058,0.017,0.082-0.016C15.548,11.688,15.583,11.651,15.617,11.612
		 M14.485,10.488c0.013-0.007,0.012-0.022,0.001-0.041c-0.014-0.02-0.027-0.041-0.038-0.062c-0.013-0.025-0.023-0.023-0.04-0.003
		c-0.062,0.074-0.125,0.147-0.187,0.221c-0.007,0.009-0.015,0.017-0.02,0.025c-0.015,0.025,0,0.049,0.013,0.068
		c0.008,0.013,0.022,0.001,0.031-0.006C14.326,10.627,14.405,10.563,14.485,10.488 M17.639,8.812c-0.003,0-0.008,0-0.011,0
		c0.015,0.15,0.03,0.3,0.046,0.45c0,0.018,0.007,0.035,0.02,0.049c0.016,0.018,0.028,0.024,0.038-0.005
		c0.013-0.037,0.022-0.074,0.022-0.112C17.754,9.055,17.696,8.933,17.639,8.812 M16.764,8.078V8.068
		c-0.003-0.002-0.008-0.005-0.013-0.008c-0.099-0.034-0.201-0.053-0.306-0.057c-0.061-0.002-0.122,0.012-0.176,0.042
		c-0.01,0.005-0.023,0.009-0.023,0.021c0,0.014,0.013,0.021,0.023,0.025c0.029,0.011,0.057,0.011,0.085,0.009
		c0.112-0.007,0.224-0.014,0.336-0.021C16.716,8.078,16.738,8.078,16.764,8.078 M13.894,11.475
		c-0.031-0.075-0.069-0.146-0.098-0.222c-0.021-0.055-0.024-0.11-0.005-0.167c0.003-0.009,0.004-0.019,0.01-0.039
		c-0.052,0.074-0.071,0.138-0.032,0.214C13.807,11.334,13.846,11.406,13.894,11.475 M14.733,12.184
		c0.086,0.039,0.175,0.081,0.271,0.093c0.051,0.007,0.092-0.024,0.127-0.063C14.991,12.289,14.867,12.209,14.733,12.184"/>
	<path fill="#FFFFFF" d="M13.839,12.076c-0.367,0.686-0.594,1.424-0.616,2.208c-0.14,4.879,2.851,7.063,2.851,7.063
		s-2.126-2.597-2.324-5.669c-0.091-1.418,0.18-2.456,0.548-3.206c-0.114-0.07-0.222-0.151-0.321-0.248
		C13.928,12.177,13.883,12.127,13.839,12.076"/>
</g>
</svg>
