<svg width="19" height="19" viewBox="0 0 19 19" fill="none" xmlns="http://www.w3.org/2000/svg">
<path fill-rule="evenodd" clip-rule="evenodd" d="M12.5478 1.9798C13.0474 1.9798 13.5461 2.05026 14.0203 2.20939C16.9424 3.15938 17.9953 6.36564 17.1158 9.16814C16.617 10.6003 15.8016 11.9073 14.7336 12.9753C13.2049 14.4557 11.5274 15.7698 9.7216 16.9019L9.52368 17.0215L9.31785 16.894C7.50572 15.7698 5.81868 14.4557 4.27572 12.9673C3.21489 11.8994 2.39868 10.6003 1.89202 9.16814C0.997432 6.36564 2.05035 3.15938 5.00406 2.19276C5.23364 2.11359 5.47035 2.05818 5.70785 2.0273H5.80285C6.02531 1.99484 6.24618 1.9798 6.46785 1.9798H6.55493C7.05368 1.99484 7.5366 2.08193 8.00447 2.24105H8.05118C8.08285 2.25609 8.1066 2.27272 8.12243 2.28776C8.29739 2.34397 8.46285 2.4073 8.62118 2.49439L8.92201 2.62897C8.99471 2.66774 9.0763 2.72698 9.14682 2.77817C9.1915 2.81061 9.23173 2.83982 9.26243 2.85855C9.27535 2.86617 9.28848 2.87384 9.30172 2.88156C9.3696 2.92119 9.44031 2.96247 9.49993 3.00818C10.3795 2.33605 11.4474 1.97189 12.5478 1.9798ZM14.6537 7.6798C14.9783 7.67109 15.2553 7.41063 15.2791 7.07734V6.98313C15.3028 5.87401 14.6307 4.86939 13.6087 4.48147C13.2841 4.36984 12.9278 4.5448 12.8091 4.8773C12.6983 5.2098 12.8724 5.57397 13.2049 5.69193C13.7124 5.88193 14.052 6.38147 14.052 6.93484V6.95938C14.037 7.14068 14.0916 7.31563 14.2024 7.45022C14.3133 7.5848 14.4795 7.66318 14.6537 7.6798Z" fill="white"/>
</svg>
