<?xml version="1.0" encoding="utf-8"?>
<!-- Generator: Adobe Illustrator 16.0.0, SVG Export Plug-In . SVG Version: 6.00 Build 0)  -->
<!DOCTYPE svg PUBLIC "-//W3C//DTD SVG 1.1//EN" "http://www.w3.org/Graphics/SVG/1.1/DTD/svg11.dtd">
<svg version="1.1" id="Layer_1" xmlns="http://www.w3.org/2000/svg" xmlns:xlink="http://www.w3.org/1999/xlink" x="0px" y="0px"
	 width="109px" height="57px" viewBox="0 0 109 57" enable-background="new 0 0 109 57" xml:space="preserve">
<g>
	<path fill="#F15C25" d="M28.346,32.627c-1.693-2.199-4.366-2.798-6.523-2.798c-5.235,0-9.55,3.122-11.398,9.419
		c-1.215,4.128-0.556,9.226,5.918,9.226c1.699,0,4.456-0.32,6.686-1.649l1.213-4.136h-8.127l2.092-7.114h15.707l-4.199,14.273
		c-3.222,4.091-9.473,6.291-15.672,6.291c-12.72,0-15.043-8.491-12.575-16.891c2.471-8.408,10.521-17.041,22.595-17.041
		c4.457,0,8.136,0.918,11.104,5.188L28.346,32.627z"/>
	<path fill="#F15C25" d="M101.59,32.627c-1.694-2.199-4.366-2.798-6.521-2.798c-5.246,0-9.557,3.122-11.402,9.419
		c-1.223,4.128-0.562,9.226,5.915,9.226c1.705,0,4.453-0.32,6.687-1.649l1.22-4.136H89.35l2.1-7.114h15.704l-4.2,14.272
		c-3.222,4.092-9.469,6.292-15.67,6.292c-12.725,0-15.044-8.491-12.569-16.891c2.463-8.408,10.513-17.041,22.587-17.041
		c4.454,0,8.139,0.918,11.106,5.188L101.59,32.627z"/>
	<path fill="#F15C25" d="M41.556,40.056c-0.399,0.512-0.778,1.063-1.133,1.654c-0.885,1.469-1.625,3.179-2.174,5.157l-2.491,8.952
		h24.935C50.828,52.233,44.964,45.724,41.556,40.056 M59.429,46.593c2.804,3.832,6.19,6.169,9.248,7.588l2.111-7.588H59.429z
		 M64.938,16.869c-0.495-0.031-1.001-0.043-1.517-0.043c-0.539,0-1.078,0.012-1.606,0.043c-2.057,0.113-4.091,0.448-6.016,1.025
		c-1.429,2.959-2.414,6.788-2.161,11.62h0.699c1.088-2.913,3.498-4.065,6.686-4.065c2.321,0,4.389,0.77,4.333,2.802
		c-0.011,0.269-0.054,0.561-0.144,0.878c-0.868,3.131-4.354,4.01-6.498,4.01c-1.15,0-2.331,0.05-3.52,0.17
		c-0.363,0.034-0.737,0.077-1.099,0.127c0.165,0.974,0.384,1.986,0.659,3.024c0.505,1.931,1.122,3.673,1.837,5.246
		c9.116-0.062,16.737-3.271,19.376-12.743C78.11,21.271,72.757,17.314,64.938,16.869"/>
	<path fill="#F15C25" d="M58.4,21.858c1.545-1.141,3.887-3.213,4.448-5.033c-1.782,0-3.436,0.043-3.436,0.043
		s-0.144-3.557,3.766-7.288c-0.1,0.052-4.586,2.505-7.379,8.313c-0.797,1.653-1.458,3.577-1.837,5.796
		C55.535,23.277,57.108,22.815,58.4,21.858"/>
	<path fill="#F15C25" d="M60.737,55.842c0,0-0.056-0.012-0.143-0.022C59.143,55.66,46.6,53.907,40.422,41.71
		c-1.674-3.311-2.878-7.378-3.27-12.398c0,0,0.912,4.931,4.404,10.744c3.409,5.668,9.272,12.178,19.136,15.763
		C60.704,55.83,60.716,55.83,60.737,55.842"/>
	<path fill="#F15C25" d="M59.241,7.244c-0.461,0.436-0.835,0.948-1.243,1.432c-0.077,0.093-0.033,0.176-0.011,0.264
		c0.082,0.264,0.022,0.481-0.166,0.635c-0.098,0.077-0.137,0.063-0.181-0.049c-0.033-0.083-0.015-0.223-0.094-0.234
		c-0.088-0.014-0.131,0.115-0.186,0.187c-0.881,1.097-1.837,2.127-2.827,3.123c-0.792,0.792-1.584,1.584-2.375,2.373
		c-0.204,0.197-0.407,0.395-0.61,0.586c-0.209,0.194-0.462,0.257-0.73,0.162c-0.993-0.352-1.909-0.844-2.673-1.586
		c-0.566-0.553-1.023-1.193-1.394-1.892c-0.148-0.279-0.102-0.552,0.081-0.808c0.5-0.695,0.997-1.395,1.501-2.088
		c0.61-0.84,1.219-1.685,1.867-2.501c0.3-0.379,0.586-0.762,0.915-1.119c0.32-0.349,0.6-0.729,0.936-1.063
		c0.021-0.022,0.054-0.044,0.044-0.081c-0.022-0.035-0.055-0.029-0.088-0.033c-0.066-0.008-0.132-0.019-0.198-0.021
		c-0.115-0.006-0.121-0.066-0.077-0.151c0.099-0.198,0.33-0.316,0.583-0.272c0.165,0.031,0.253-0.022,0.362-0.134
		c0.804-0.839,1.496-1.764,2.244-2.651c0.275-0.333,0.616-0.437,1.013-0.456c0.736-0.034,1.419,0.163,2.056,0.519
		c1.166,0.658,2.068,1.564,2.519,2.869c0.132,0.393,0.187,0.799,0.109,1.217c-0.022,0.137-0.077,0.258-0.164,0.365
		C60.049,6.302,59.648,6.774,59.241,7.244 M56.405,5.18c-0.418-0.366-0.814-0.655-1.255-0.887c-0.363-0.194-0.748-0.343-1.172-0.359
		c-0.104-0.005-0.182,0.008-0.247,0.115c-0.308,0.531-0.626,1.056-0.935,1.586c-0.121,0.209-0.055,0.391,0.159,0.493
		c1.215,0.569,2.205,1.41,2.949,2.529c0.126,0.187,0.317,0.22,0.494,0.078c0.489-0.401,0.979-0.808,1.469-1.209
		c0.048-0.042,0.064-0.08,0.053-0.146c-0.053-0.445-0.274-0.828-0.525-1.172C57.091,5.811,56.745,5.449,56.405,5.18 M49.505,13.141
		c0.349,0.301,0.718,0.569,1.135,0.776c0.353,0.175,0.721,0.297,1.123,0.319c0.077,0.003,0.132-0.024,0.176-0.087
		c0.28-0.423,0.561-0.851,0.847-1.274c0.055-0.083,0.033-0.11-0.044-0.137c-0.226-0.083-0.441-0.171-0.655-0.28
		c-0.445-0.231-0.846-0.52-1.226-0.841c-0.585-0.5-1.122-1.05-1.474-1.749c-0.051-0.107-0.093-0.033-0.132,0
		c-0.373,0.341-0.742,0.684-1.116,1.026c-0.066,0.057-0.077,0.118-0.061,0.2c0.042,0.209,0.11,0.407,0.209,0.594
		C48.584,12.264,49.017,12.725,49.505,13.141 M57.636,8.069c-0.182,0.143-0.341,0.274-0.505,0.393
		c-0.82,0.58-1.463,1.336-2.124,2.072c-0.082,0.088-0.037,0.104,0.045,0.113c0.122,0.014,0.236,0.028,0.353,0.046
		c0.072,0.017,0.121-0.01,0.164-0.066c0.66-0.765,1.32-1.526,1.979-2.285C57.613,8.27,57.646,8.19,57.636,8.069 M53.259,4.322
		c-0.127,0.012-0.192,0.055-0.253,0.124c-0.639,0.756-1.286,1.511-1.93,2.264c-0.066,0.08-0.104,0.157-0.061,0.268
		c0.044,0.09,0.065,0.195,0.087,0.293c0.028,0.083,0.051,0.118,0.122,0.031c0.561-0.685,1.143-1.349,1.567-2.136
		C52.94,4.89,53.094,4.618,53.259,4.322 M50.186,8.494c0.006,0.005,0.008,0.009,0.014,0.014c0.135-0.157,0.255-0.333,0.41-0.464
		c0.252-0.226,0.297-0.471,0.143-0.765c-0.017-0.031-0.005-0.084-0.049-0.093c-0.039-0.006-0.061,0.041-0.083,0.069
		c-0.396,0.467-0.789,0.935-1.182,1.401c-0.214,0.258-0.211,0.258-0.041,0.553c0.06,0.104,0.098,0.093,0.167,0.011
		C49.77,8.979,49.977,8.737,50.186,8.494 M54.468,11.897v0.004c0.226-0.26,0.451-0.52,0.672-0.779
		c0.021-0.028,0.065-0.049,0.055-0.091c-0.021-0.038-0.072-0.027-0.104-0.033c-0.1-0.014-0.198-0.019-0.292-0.041
		c-0.104-0.024-0.171,0.006-0.243,0.088c-0.353,0.426-0.714,0.839-1.055,1.272c-0.22,0.281-0.225,0.272,0.109,0.404
		c0.099,0.036,0.145,0.014,0.199-0.058C54.029,12.408,54.248,12.154,54.468,11.897 M53.181,13.393c0,0.003,0,0.003,0,0.003
		c0.116-0.135,0.231-0.269,0.347-0.403c0.023-0.025,0.072-0.064,0.018-0.091c-0.11-0.058-0.231-0.104-0.352-0.148
		c-0.033-0.013-0.066,0.022-0.089,0.056c-0.214,0.293-0.384,0.614-0.561,0.933c-0.023,0.042-0.033,0.088,0.017,0.103
		c0.099,0.02,0.198,0.057,0.28-0.053C52.946,13.655,53.067,13.525,53.181,13.393 M49.284,9.522c0.044-0.027,0.041-0.077,0.003-0.14
		c-0.046-0.069-0.091-0.14-0.129-0.214c-0.044-0.088-0.08-0.08-0.137-0.012c-0.213,0.256-0.429,0.506-0.644,0.759
		c-0.024,0.031-0.052,0.057-0.069,0.088c-0.052,0.087,0.002,0.167,0.045,0.233c0.027,0.044,0.077,0.003,0.109-0.022
		C48.736,10,49.008,9.779,49.284,9.522 M60.143,3.752c-0.012,0-0.027,0-0.037,0c0.049,0.517,0.104,1.033,0.158,1.55
		c0,0.06,0.023,0.121,0.066,0.168c0.055,0.061,0.099,0.084,0.133-0.018c0.043-0.128,0.076-0.254,0.076-0.386
		C60.539,4.588,60.341,4.169,60.143,3.752 M57.131,1.223V1.192c-0.013-0.008-0.028-0.02-0.045-0.027
		c-0.341-0.118-0.693-0.184-1.055-0.197c-0.21-0.008-0.418,0.043-0.604,0.145c-0.034,0.017-0.079,0.03-0.079,0.072
		c0,0.047,0.045,0.071,0.079,0.088c0.099,0.038,0.196,0.036,0.295,0.03c0.385-0.024,0.77-0.05,1.155-0.072
		C56.966,1.226,57.041,1.226,57.131,1.223 M47.25,12.919c-0.107-0.256-0.239-0.503-0.337-0.765
		c-0.075-0.189-0.083-0.379-0.018-0.575c0.012-0.03,0.014-0.063,0.034-0.134c-0.178,0.255-0.245,0.475-0.11,0.737
		C46.95,12.435,47.084,12.682,47.25,12.919 M50.139,15.361c0.294,0.135,0.602,0.278,0.932,0.32c0.177,0.024,0.318-0.082,0.439-0.218
		C51.027,15.722,50.598,15.448,50.139,15.361"/>
	<path fill="#F15C25" d="M47.062,14.989c-1.264,2.361-2.045,4.901-2.122,7.604c-0.481,16.798,9.814,24.318,9.814,24.318
		s-7.321-8.938-8-19.52c-0.313-4.881,0.619-8.456,1.886-11.037c-0.393-0.243-0.764-0.52-1.104-0.853
		C47.368,15.338,47.21,15.167,47.062,14.989"/>
</g>
</svg>
