<?xml version="1.0" encoding="utf-8"?>
<!-- Generator: Adobe Illustrator 24.3.0, SVG Export Plug-In . SVG Version: 6.00 Build 0)  -->
<svg version="1.1" xmlns="http://www.w3.org/2000/svg" xmlns:xlink="http://www.w3.org/1999/xlink" x="0px" y="0px" width="60px"
	 height="60px" viewBox="0 0 60 60" style="enable-background:new 0 0 60 60;" xml:space="preserve">
<style type="text/css">
	.st0{fill:#F37230;}
	.st1{fill:#FF935B;}
	.st2{fill:#E9E9E9;}
	.st3{fill:#E4E4E4;}
	.st4{fill:#FFFFFF;}
	.st5{fill:#9E9A9A;}
</style>
<g id="Layer_2">
</g>
<g id="Layer_1">
	<path class="st0" d="M56,42.7h2.6V29c0-4.9-4-8.9-8.9-8.9h-9.1l-5.1,26h8.6c0-2.8,2.3-5.1,5.1-5.1c2.8,0,5.1,2.3,5.1,5.1H57
		c0.9,0,1.6-0.7,1.7-1.5H56c-0.5,0-1-0.4-1-1C55.1,43.2,55.5,42.7,56,42.7z M44.5,32.9v-9h5.2c2.8,0,5.1,2.3,5.1,5.1v3.9H44.5z
		 M54.8,40.8c-0.5,0-1-0.4-1-0.9v-2.4c0-0.5,0.4-1,1-1c0.5,0,1,0.4,1,1v2.4C55.8,40.4,55.4,40.8,54.8,40.8z M49.3,43.2
		c-1.6,0-2.9,1.3-2.9,2.9h1.4c0-0.8,0.7-1.5,1.5-1.5c0.8,0,1.5,0.7,1.5,1.5h1.4C52.2,44.5,50.9,43.2,49.3,43.2z"/>
	<path class="st1" d="M15.2,18.9v-1.5h1.9V18h1.4c0.5,0,1,0.4,1,1c0,0.5-0.4,1-1,1h-2.4C15.7,19.9,15.2,19.5,15.2,18.9z"/>
	<path class="st1" d="M24.3,17.4c0.1,0.5,0.1,1,0.1,1.5c0,2.7-1.3,5.2-3.4,6.7c-0.6,0.5-1.3,0.8-2,1.1c-0.9,0.3-1.8,0.5-2.8,0.5
		c-0.5,0-1.1-0.1-1.6-0.2v15.7h2c0.5,0,1,0.4,1,1c0,0.5-0.4,1-1,1h-2v1.5h3.8c0-2.8,2.3-5.1,5.1-5.1c2.8,0,5.1,2.3,5.1,5.1h12V17.4
		H24.3z M21.1,37.7c0,0.6-0.5,1-1,1c-0.6,0-1-0.5-1-1v-9c0.7-0.2,1.4-0.5,2-0.8V37.7z M28.7,37.7c0,0.6-0.5,1-1,1c-0.6,0-1-0.5-1-1
		V22.8c0-0.6,0.5-1,1-1c0.6,0,1,0.5,1,1V37.7z M35.3,38.7c-0.6,0-1-0.5-1-1V22.8c0-0.6,0.5-1,1-1c0.6,0,1,0.5,1,1v14.9
		C36.3,38.3,35.8,38.7,35.3,38.7z M23.6,43.2c-1.6,0-2.9,1.3-2.9,2.9h1.4c0-0.8,0.7-1.5,1.5-1.5c0.8,0,1.5,0.7,1.5,1.5h1.4
		C26.5,44.5,25.2,43.2,23.6,43.2z"/>
	<path class="st2" d="M23.6,43.2c-1.6,0-2.9,1.3-2.9,2.9c0,1.6,1.3,2.9,2.9,2.9c1.6,0,2.9-1.3,2.9-2.9
		C26.5,44.5,25.2,43.2,23.6,43.2z M23.6,47.7c-0.8,0-1.5-0.7-1.5-1.5c0-0.8,0.7-1.5,1.5-1.5c0.8,0,1.5,0.7,1.5,1.5
		C25.1,47,24.4,47.7,23.6,47.7z"/>
	<path class="st3" d="M23.6,44.1c-1.1,0-2.1,0.9-2.1,2.1c0,1.1,0.9,2.1,2.1,2.1c1.1,0,2.1-0.9,2.1-2.1C25.7,45,24.7,44.1,23.6,44.1z
		 M23.6,47.7c-0.8,0-1.5-0.7-1.5-1.5c0-0.8,0.7-1.5,1.5-1.5c0.8,0,1.5,0.7,1.5,1.5C25.1,47,24.4,47.7,23.6,47.7z"/>
	<path class="st2" d="M49.3,43.2c-1.6,0-2.9,1.3-2.9,2.9c0,1.6,1.3,2.9,2.9,2.9c1.6,0,2.9-1.3,2.9-2.9
		C52.2,44.5,50.9,43.2,49.3,43.2z M49.3,47.7c-0.8,0-1.5-0.7-1.5-1.5c0-0.8,0.7-1.5,1.5-1.5c0.8,0,1.5,0.7,1.5,1.5
		C50.8,47,50.1,47.7,49.3,47.7z"/>
	<path class="st0" d="M23.6,43.2c-1.6,0-2.9,1.3-2.9,2.9c0,1.6,1.3,2.9,2.9,2.9c1.6,0,2.9-1.3,2.9-2.9
		C26.5,44.5,25.2,43.2,23.6,43.2z M23.6,47.7c-0.8,0-1.5-0.7-1.5-1.5c0-0.8,0.7-1.5,1.5-1.5c0.8,0,1.5,0.7,1.5,1.5
		C25.1,47,24.4,47.7,23.6,47.7z"/>
	<path class="st3" d="M49.3,44.1c-1.1,0-2.1,0.9-2.1,2.1c0,1.1,0.9,2.1,2.1,2.1c1.1,0,2.1-0.9,2.1-2.1C51.3,45,50.4,44.1,49.3,44.1z
		 M49.3,47.7c-0.8,0-1.5-0.7-1.5-1.5c0-0.8,0.7-1.5,1.5-1.5c0.8,0,1.5,0.7,1.5,1.5C50.8,47,50.1,47.7,49.3,47.7z"/>
	<path class="st0" d="M49.3,43.2c-1.6,0-2.9,1.3-2.9,2.9c0,1.6,1.3,2.9,2.9,2.9c1.6,0,2.9-1.3,2.9-2.9
		C52.2,44.5,50.9,43.2,49.3,43.2z M49.3,47.7c-0.8,0-1.5-0.7-1.5-1.5c0-0.8,0.7-1.5,1.5-1.5c0.8,0,1.5,0.7,1.5,1.5
		C50.8,47,50.1,47.7,49.3,47.7z"/>
	<path class="st4" d="M21.1,25.6v2.3c-0.6,0.3-1.3,0.6-2,0.8v-2C19.8,26.4,20.5,26.1,21.1,25.6z"/>
	<path class="st4" d="M60,43.7c0,0.5-0.4,1-1,1h-0.4c0-0.1,0-0.1,0-0.2v-1.7H59C59.6,42.7,60,43.2,60,43.7z"/>
	<path class="st5" d="M17.6,43.7c0,0.5-0.4,1-1,1h-2v-1.9h2C17.2,42.7,17.6,43.2,17.6,43.7z"/>
	<path class="st5" d="M14.7,42.7v1.9h-1c-0.5,0-1-0.4-1-1c0-0.5,0.4-1,1-1H14.7z"/>
	<path class="st5" d="M7,25.8c0,0.4-0.3,0.7-0.7,0.7h-3c-0.4,0-0.7-0.3-0.7-0.7c0-0.4,0.3-0.7,0.7-0.7h3C6.6,25.1,7,25.4,7,25.8z"/>
	<path class="st5" d="M12.1,36.6c0,0.4-0.3,0.7-0.7,0.7H4.5c-0.4,0-0.7-0.3-0.7-0.7c0-0.4,0.3-0.7,0.7-0.7h6.8
		C11.8,35.9,12.1,36.2,12.1,36.6z"/>
	<path class="st5" d="M9.5,30.9c0,0.4-0.3,0.7-0.7,0.7H0.7c-0.4,0-0.7-0.3-0.7-0.7s0.3-0.7,0.7-0.7h8.1C9.2,30.2,9.5,30.5,9.5,30.9z
		"/>
	<path class="st5" d="M9.5,44.3c0,0.4-0.3,0.7-0.7,0.7H8c-0.4,0-0.7-0.3-0.7-0.7c0-0.4,0.3-0.7,0.7-0.7h0.8
		C9.2,43.6,9.5,43.9,9.5,44.3z"/>
	<path class="st5" d="M5.5,44.3c0,0.4-0.3,0.7-0.7,0.7H0.7C0.3,45,0,44.7,0,44.3c0-0.4,0.3-0.7,0.7-0.7h4.1
		C5.2,43.6,5.5,43.9,5.5,44.3z"/>
	<path class="st4" d="M18.6,18h-1.4v-4.4c0-0.5-0.4-0.9-0.9-0.9c-0.5,0-1,0.4-1,0.9v5.3c0,0.5,0.4,1,1,1h2.4c0.5,0,1-0.4,1-1
		C19.5,18.4,19.1,18,18.6,18z M18.6,18h-1.4v-4.4c0-0.5-0.4-0.9-0.9-0.9c-0.5,0-1,0.4-1,0.9v5.3c0,0.5,0.4,1,1,1h2.4
		c0.5,0,1-0.4,1-1C19.5,18.4,19.1,18,18.6,18z M25.3,17.4c-0.7-4.4-4.5-7.7-9.1-7.7c-5.1,0-9.2,4.1-9.2,9.2c0,4.6,3.3,8.4,7.7,9.1
		c0.5,0.1,1,0.1,1.6,0.1c1,0,1.9-0.2,2.8-0.4c0.7-0.2,1.4-0.6,2-0.9c2.6-1.6,4.3-4.5,4.3-7.8C25.4,18.4,25.4,17.9,25.3,17.4z
		 M21.1,25.6c-0.6,0.5-1.3,0.8-2,1.1c-0.9,0.3-1.8,0.5-2.8,0.5c-0.5,0-1.1-0.1-1.6-0.2c-3.8-0.7-6.7-4.1-6.7-8.1
		c0-4.6,3.7-8.3,8.3-8.3c4,0,7.4,2.9,8.1,6.8c0.1,0.5,0.1,1,0.1,1.5C24.5,21.7,23.2,24.1,21.1,25.6z M18.6,18h-1.4v-4.4
		c0-0.5-0.4-0.9-0.9-0.9c-0.5,0-1,0.4-1,0.9v5.3c0,0.5,0.4,1,1,1h2.4c0.5,0,1-0.4,1-1C19.5,18.4,19.1,18,18.6,18z"/>
	<path class="st0" d="M26.3,17.4c-0.7-4.9-5-8.7-10.1-8.7C10.6,8.7,6,13.3,6,18.9C6,24,9.8,28.3,14.7,29c0.5,0.1,1,0.1,1.6,0.1
		c1,0,1.9-0.1,2.8-0.4c0.7-0.2,1.4-0.5,2-0.8c3.2-1.7,5.3-5.1,5.3-8.9C26.4,18.4,26.4,17.9,26.3,17.4z M21.1,25.6
		c-0.6,0.5-1.3,0.8-2,1.1c-0.9,0.3-1.8,0.5-2.8,0.5c-0.5,0-1.1-0.1-1.6-0.2c-3.8-0.7-6.7-4.1-6.7-8.1c0-4.6,3.7-8.3,8.3-8.3
		c4,0,7.4,2.9,8.1,6.8c0.1,0.5,0.1,1,0.1,1.5C24.5,21.7,23.2,24.1,21.1,25.6z"/>
	<path class="st0" d="M19.5,18.9c0,0.5-0.4,1-1,1h-2.4c-0.5,0-1-0.4-1-1v-5.3c0-0.5,0.4-0.9,1-0.9c0.5,0,0.9,0.4,0.9,0.9V18h1.4
		C19.1,18,19.5,18.4,19.5,18.9z"/>
</g>
</svg>
