<?xml version="1.0" encoding="utf-8"?>
<!-- Generator: Adobe Illustrator 24.3.0, SVG Export Plug-In . SVG Version: 6.00 Build 0)  -->
<svg version="1.1" id="Layer_1" xmlns="http://www.w3.org/2000/svg" xmlns:xlink="http://www.w3.org/1999/xlink" x="0px" y="0px"
	 width="40px" height="40px" viewBox="0 0 40 40" style="enable-background:new 0 0 40 40;" xml:space="preserve">
<style type="text/css">
	.st0{fill:none;}
	.st1{fill:#F37230;}
</style>
<rect class="st0" width="40" height="40"/>
<g>
	<path class="st1" d="M37.9,8.9l-5.4-2.4l-17.2,8.1v5.2l-3-1.3v-5.2l17.2-8.1l-5.8-2.6c-0.8-0.3-2-0.3-2.8,0L6.7,8.9
		C5.6,9.4,4.7,10.8,4.7,12l0,9.4C5.6,21.1,6.5,21,7.5,21c5.1,0,9.2,4.1,9.2,9.2c0,1.3-0.3,2.6-0.8,3.7l5,2.1c0.7,0.3,2,0.3,2.7,0
		L37.9,30c1.2-0.5,2.1-1.9,2.1-3.2L40,12C40,10.8,39.1,9.4,37.9,8.9z M32.5,19.6l1.9-4.1c0.2-0.4,0.7-0.6,0.9-0.4l2,2.3
		c0.2,0.2-0.1,0.7-0.4,0.9L36,18.7l0,5.9c0,0.3-0.2,0.6-0.5,0.7l-1.2,0.5c-0.3,0.1-0.5,0-0.5-0.2l0-5.8l-0.8,0.4
		C32.5,20.3,32.3,20,32.5,19.6z M25.4,22.9l1.7-3.9c0.2-0.4,0.6-0.6,0.8-0.4l1.9,2.2c0.2,0.2,0,0.7-0.4,0.9l-0.8,0.4l0,5.6
		c0,0.2-0.2,0.5-0.5,0.6L27,28.8c-0.3,0.1-0.5,0-0.5-0.2l-0.1-5.5l-0.7,0.3C25.4,23.6,25.2,23.3,25.4,22.9z M38.2,26.1
		c0,0.1-0.1,0.3-0.3,0.3L24.7,32c-0.1,0.1-0.2,0-0.2-0.1l0-0.6c0-0.1,0.1-0.3,0.2-0.3l13.2-5.6c0.1-0.1,0.3,0,0.3,0.1L38.2,26.1z
		 M7.5,22.7C3.4,22.7,0,26,0,30.2c0,4.1,3.4,7.5,7.5,7.5c4.1,0,7.5-3.4,7.5-7.5C15,26,11.7,22.7,7.5,22.7z M12.4,28.7l-4.6,5.2
		c-0.2,0.3-0.5,0.4-0.9,0.4c-0.3,0-0.5-0.1-0.7-0.3l-2.9-2.3c-0.5-0.4-0.6-1.1-0.2-1.6c0.4-0.5,1.1-0.6,1.6-0.2l2,1.6l3.9-4.4
		c0.4-0.5,1.2-0.5,1.6-0.1C12.8,27.4,12.8,28.2,12.4,28.7z"/>
</g>
</svg>
