<?xml version="1.0" encoding="utf-8"?>
<!-- Generator: Adobe Illustrator 24.3.0, SVG Export Plug-In . SVG Version: 6.00 Build 0)  -->
<svg version="1.1" id="Layer_1" xmlns="http://www.w3.org/2000/svg" xmlns:xlink="http://www.w3.org/1999/xlink" x="0px" y="0px"
	 width="40px" height="40px" viewBox="0 0 40 40" style="enable-background:new 0 0 40 40;" xml:space="preserve">
<style type="text/css">
	.st0{fill:#FF935B;}
	.st1{fill:#F37230;}
</style>
<path class="st0" d="M29.5,17.1c-0.1-0.3-0.2-0.6-0.3-0.9c-0.1-0.3-0.3-0.6-0.4-0.9c0,0,0,0,0,0c-0.1-0.3-0.3-0.6-0.5-0.8
	c-0.1-0.1-0.2-0.3-0.3-0.4c-0.3-0.4-0.6-0.7-0.9-1.1c-0.1-0.1-0.3-0.3-0.4-0.4c-0.2-0.2-0.3-0.3-0.5-0.4c-0.1-0.1-0.2-0.2-0.3-0.2
	c-0.2-0.1-0.3-0.2-0.5-0.3c-0.1,0-0.1-0.1-0.2-0.1c-0.2-0.2-0.5-0.3-0.8-0.4c-1.3-0.6-2.8-1-4.3-1c-2.2,0-4.3,0.8-6,2
	c-0.4,0.3-0.7,0.6-1.1,1c-1.1,1.1-1.9,2.4-2.4,3.9H13c0.2,0,0.4,0.1,0.6,0.2c0.1,0,0.1,0.1,0.2,0.1c0.2,0.2,0.3,0.5,0.3,0.8
	c0,0.3-0.1,0.6-0.3,0.8c-0.1,0.1-0.2,0.2-0.3,0.2c-0.1,0.1-0.3,0.1-0.4,0.1h-2.9v0c0,0.3,0,0.6,0,0.9s0,0.6,0,0.9h2.1
	c0.2,0,0.4,0.1,0.6,0.2c0.1,0,0.1,0.1,0.2,0.1c0.2,0.2,0.3,0.5,0.3,0.8c0,0.3-0.1,0.6-0.3,0.8c0,0-0.1,0.1-0.2,0.1
	c-0.2,0.1-0.4,0.2-0.6,0.2h-1.6c0.5,1.5,1.3,2.8,2.4,3.9c0.3,0.3,0.7,0.7,1.1,1c1.7,1.2,3.7,2,6,2c2.8,0,5.3-1.2,7.1-3
	c0.2-0.2,0.4-0.4,0.5-0.6c0.3-0.4,0.6-0.8,0.9-1.3c0.1-0.2,0.3-0.5,0.4-0.7c0.2-0.5,0.4-0.9,0.6-1.5c0.3-0.9,0.5-1.9,0.5-2.9
	C29.9,19,29.8,18,29.5,17.1z M21.1,26.6v0.8c0,0.6-0.5,1.1-1.1,1.1c-0.6,0-1.1-0.5-1.1-1.1v-0.8c-1.7-0.5-2.9-2-2.9-3.8
	c0-0.6,0.5-1.1,1.1-1.1c0.6,0,1.1,0.5,1.1,1.1c0,1,0.8,1.7,1.7,1.7s1.7-0.8,1.7-1.7c0-0.9-0.8-1.6-1.7-1.7c0,0,0,0,0,0
	c-2.2,0-3.9-1.8-3.9-4c0-1.8,1.2-3.3,2.8-3.8v-0.8c0-0.6,0.5-1.1,1.1-1.1c0.6,0,1.1,0.5,1.1,1.1v0.8c1.7,0.5,2.9,2,2.9,3.8
	c0,0.6-0.5,1.1-1.1,1.1c-0.6,0-1.1-0.5-1.1-1.1c0-1-0.8-1.7-1.7-1.7c-1,0-1.7,0.8-1.7,1.7c0,0.9,0.7,1.6,1.6,1.7h0
	c2.2,0,4.1,1.8,4.1,3.9C24,24.6,22.8,26.2,21.1,26.6z"/>
<path class="st1" d="M20,7.8C13.3,7.8,7.8,13.3,7.8,20c0,6.7,5.5,12.2,12.2,12.2S32.2,26.7,32.2,20C32.2,13.3,26.7,7.8,20,7.8z
	 M28.9,24.4c-0.1,0.2-0.2,0.5-0.4,0.7c-0.3,0.5-0.6,0.9-0.9,1.3c-0.2,0.2-0.3,0.4-0.5,0.6c-1.8,1.9-4.3,3-7.1,3c-2.2,0-4.3-0.8-6-2
	c-0.4-0.3-0.7-0.6-1.1-1c-1.1-1.1-1.9-2.4-2.4-3.9h1.6c0.2,0,0.4-0.1,0.6-0.2c0.1,0,0.1-0.1,0.2-0.1c0.2-0.2,0.3-0.5,0.3-0.8
	c0-0.3-0.1-0.6-0.3-0.8c0,0-0.1-0.1-0.2-0.1c-0.2-0.1-0.4-0.2-0.6-0.2h-2.1c0-0.3,0-0.6,0-0.9s0-0.6,0-0.9H13c0.1,0,0.3,0,0.4-0.1
	s0.2-0.1,0.3-0.2c0.2-0.2,0.3-0.5,0.3-0.8c0-0.3-0.1-0.6-0.3-0.8c0,0-0.1-0.1-0.2-0.1c-0.2-0.1-0.4-0.2-0.6-0.2h-2.5v0
	c0.5-1.5,1.3-2.8,2.4-3.9c0.3-0.3,0.7-0.7,1.1-1c1.7-1.2,3.7-2,6-2c1.5,0,3,0.3,4.3,1c0.3,0.1,0.5,0.3,0.8,0.4c0,0,0.1,0.1,0.2,0.1
	c0.2,0.1,0.4,0.2,0.5,0.3c0.1,0.1,0.2,0.2,0.3,0.2c0.2,0.1,0.4,0.3,0.5,0.4c0.1,0.1,0.3,0.2,0.4,0.4c0.3,0.3,0.6,0.7,0.9,1.1
	c0.1,0.1,0.2,0.3,0.3,0.4c0.2,0.3,0.3,0.5,0.5,0.8c0,0,0,0,0,0c0.2,0.3,0.3,0.6,0.4,0.9c0.1,0.3,0.2,0.6,0.3,0.9
	c0.3,0.9,0.5,1.9,0.5,3c0,1-0.2,2-0.5,2.9C29.3,23.5,29.1,23.9,28.9,24.4z"/>
<path class="st1" d="M38.8,24.9c-0.6-0.2-1.2,0.1-1.4,0.7C34.3,34.9,24.2,40,14.9,36.9C5.6,33.8,0.5,23.7,3.6,14.4
	C6.7,5.1,16.7,0,26.1,3.1c3,1,5.6,2.7,7.6,5l-3.4,0.1c-0.6-0.1-1.2,0.3-1.3,0.9c-0.1,0.6,0.3,1.2,0.9,1.3l6.2,0.4
	c0.6,0.1,1.2-0.3,1.3-0.9l1-6.1c0.1-0.6-0.3-1.2-0.9-1.3c-0.6-0.1-1.2,0.3-1.3,0.9L35.6,7c-2.4-2.7-5.4-4.8-8.9-6
	C16.3-2.5,4.9,3.3,1.5,13.7C-2,24.2,3.7,35.6,14.2,39C25,42.5,36,36.5,39.5,26.3C39.7,25.7,39.4,25.1,38.8,24.9z"/>
</svg>
