<svg width="40" height="40" viewBox="0 0 40 40" fill="none" xmlns="http://www.w3.org/2000/svg">
<path d="M31.2898 25.8485C29.7057 28.0242 27.1396 29.4412 24.2485 29.4412H20.1919C18.7905 29.4412 17.5971 28.5515 17.1452 27.3063C16.5874 27.1399 16.0404 26.9239 15.5066 26.6587C14.3763 26.097 13.3499 25.3361 12.4464 24.3936C6.5856 25.6811 2.19922 30.9033 2.19922 37.1508V37.9674C2.19922 39.09 3.10927 40 4.23182 40H35.7679C36.8904 40 37.8005 39.09 37.8005 37.9674V37.1508C37.8004 32.3246 35.1826 28.1101 31.2898 25.8485Z" fill="#F37230"/>
<path d="M10.2861 20.204C11.1597 20.204 11.9201 19.7198 12.314 19.0053C12.3244 19.0336 12.3349 19.0617 12.3455 19.0898C12.3487 19.0982 12.3518 19.1067 12.3549 19.1151C13.2791 21.5476 15.0772 23.5869 17.4483 24.4778C18.0218 23.5667 19.0358 22.9607 20.1921 22.9607H24.2487C24.6534 22.9607 25.03 22.8465 25.3601 22.6619C25.9146 22.3519 26.4132 21.5653 26.6707 21.1484C27.0828 20.4812 27.402 19.7745 27.6851 19.0041C27.8442 19.293 28.063 19.5443 28.3251 19.7412V20.7359C28.3251 22.9836 26.4964 24.8123 24.2486 24.8123H20.192C19.4251 24.8123 18.8033 25.4341 18.8033 26.201C18.8033 26.968 19.4251 27.5897 20.192 27.5897H24.2486C28.0278 27.5897 31.1024 24.5151 31.1024 20.7359V19.7412C31.6645 19.3189 32.0282 18.6468 32.0282 17.8896V13.7023V12.0966C32.0282 11.3239 31.6492 10.6402 31.0673 10.2198C30.616 4.50899 25.8247 0 19.9999 0C14.175 0 9.38383 4.50899 8.93255 10.2197C8.35065 10.6401 7.97168 11.3239 7.97168 12.0966V17.8894C7.97168 19.1713 9.01304 20.204 10.2861 20.204ZM19.9999 2.7774C24.3119 2.7774 27.8685 6.07264 28.2842 10.2772C28.0113 10.4918 27.7877 10.7662 27.6337 11.081C26.3234 7.6624 23.3983 5.28225 19.9998 5.28225C16.5281 5.28225 13.65 7.7442 12.3711 11.0674C12.3694 11.0719 12.3677 11.0765 12.366 11.0811C12.212 10.7663 11.9884 10.4919 11.7155 10.2772C12.1315 6.07264 15.6879 2.7774 19.9999 2.7774Z" fill="#FF935B"/>
</svg>
