<?xml version="1.0" encoding="utf-8"?>
<!-- Generator: Adobe Illustrator 24.3.0, SVG Export Plug-In . SVG Version: 6.00 Build 0)  -->
<svg version="1.1" id="Layer_1" xmlns="http://www.w3.org/2000/svg" xmlns:xlink="http://www.w3.org/1999/xlink" x="0px" y="0px"
	 width="16px" height="16px" viewBox="0 0 16 16" style="enable-background:new 0 0 16 16;" xml:space="preserve">
<style type="text/css">
	.st0{fill:#FFFFFF;}
</style>
<path class="st0" d="M4.5,4.5c0.2-0.2,0.5-0.2,0.7,0c0,0,0,0,0,0L8,7.3l2.7-2.7c0.2-0.2,0.5-0.2,0.7,0c0.2,0.2,0.2,0.5,0,0.7L8.7,8
	l2.7,2.7c0.2,0.2,0.2,0.5,0,0.7s-0.5,0.2-0.7,0L8,8.7l-2.7,2.7c-0.2,0.2-0.5,0.2-0.7,0c-0.2-0.2-0.2-0.5,0-0.7L7.3,8L4.5,5.3
	C4.3,5.1,4.3,4.7,4.5,4.5C4.5,4.5,4.5,4.5,4.5,4.5z"/>
</svg>
